<svg id="Layer_1" data-name="Layer 1" xmlns="http://www.w3.org/2000/svg" viewBox="0 0 305.49 89.54"><defs><style>.cls-1{fill:#080607;}</style></defs><rect y="35.13" width="305.49" height="2.98"/><path class="cls-1" d="M91.6,179.29H102c4.65,0,7.75,2.35,7.75,6.29,0,4.1-2.92,6.55-7.83,6.55h-5.4v7.18H91.6Zm4.88,9.07h5c2.06,0,3.36-.71,3.36-2.7,0-1.62-1-2.62-3.36-2.62h-5Z" transform="translate(-91.6 -178.86)"/><path class="cls-1" d="M145.2,191.6v7.71h-4.81v-20H151.3c4.61,0,7.26,2.28,7.26,5.72a4.71,4.71,0,0,1-3.49,4.74c.82.32,3,1.11,3,4.7v1a16.73,16.73,0,0,0,.25,3.86h-5a12.55,12.55,0,0,1-.38-4.19v-.66c0-2-.74-2.86-3.66-2.86Zm0-3.65h5c2.36,0,3.38-.85,3.38-2.54s-1.05-2.48-3.34-2.48H145.2Z" transform="translate(-91.6 -178.86)"/><path class="cls-1" d="M210.34,189.23c0,5.55-3.7,10.51-11,10.51-6.79,0-10.66-4.64-10.66-10.49,0-5.5,4.1-10.39,10.89-10.39C206.57,178.86,210.34,183.77,210.34,189.23Zm-16.53,0c0,3.79,1.92,6.75,5.82,6.75s5.58-3.4,5.58-6.65c0-3.55-1.73-6.63-5.78-6.63C195.54,182.66,193.81,185.82,193.81,189.19Z" transform="translate(-91.6 -178.86)"/><path class="cls-1" d="M249.2,192.16c0,5.58-2.5,7.57-7.3,7.57a19.38,19.38,0,0,1-2.89-.2v-3.82a15.47,15.47,0,0,0,2.1.13c2.07,0,3.21-.82,3.21-3.42V179.29h4.88Z" transform="translate(-91.6 -178.86)"/><path class="cls-1" d="M297.25,190.86H286.08v4.56H298.5l-.56,3.89H281.22v-20h16.64v3.89H286.08V187h11.17Z" transform="translate(-91.6 -178.86)"/><path class="cls-1" d="M348.91,193c-.93,3.52-3.72,6.79-10,6.79-7.16,0-10.61-5-10.61-10.42s3.8-10.46,10.87-10.46c6.13,0,9.19,3.41,9.77,6.76H344c-.41-1.14-1.49-3-4.91-3-3.74,0-5.69,2.85-5.69,6.51s1.78,6.85,5.72,6.85c2.85,0,4.1-1.1,4.88-3Z" transform="translate(-91.6 -178.86)"/><path class="cls-1" d="M385.2,183.16h-7v-3.87h18.93v3.87h-7v16.15H385.2Z" transform="translate(-91.6 -178.86)"/><path class="cls-1" d="M100.6,256.52c1.06,3.19,3.62,5.29,9.77,5.29,5.75,0,7.42-1.75,7.42-4.14,0-2.55-1.71-4-9.51-5.32C95.43,250.15,93.09,246,93.09,241c0-7.39,7.12-11.17,15.88-11.17,12.71,0,16.16,6.53,16.58,10.84h-9c-.53-1.84-1.76-4.29-7.87-4.29-4.28,0-6.45,1.36-6.45,3.75,0,2.14,1.53,3.22,8.48,4.47,14.07,2.52,16.27,6.77,16.27,12.14,0,6.42-5,11.61-17.46,11.61-11.58,0-16.8-5.17-17.92-11.84Z" transform="translate(-91.6 -178.86)"/><path class="cls-1" d="M183.89,255.86c-1.72,6.5-6.88,12.54-18.5,12.54-13.23,0-19.62-9.15-19.62-19.27s7-19.34,20.1-19.34c11.34,0,17,6.31,18.08,12.5h-9.1c-.76-2.12-2.76-5.53-9.08-5.53-6.92,0-10.52,5.28-10.52,12s3.28,12.68,10.57,12.68c5.27,0,7.59-2.05,9-5.62Z" transform="translate(-91.6 -178.86)"/><path class="cls-1" d="M233.28,252H212.61v8.43h23l-1,7.19H203.62v-37h30.77v7.2H212.61v7h20.67Z" transform="translate(-91.6 -178.86)"/><path class="cls-1" d="M255.8,267.61v-37h10.65c10.4,15.88,14.55,21.66,16.87,26.06h.11c-.36-3.89-.31-10.82-.31-16.91v-9.15h8.23v37h-10c-3.49-5.51-15.34-23.92-17.55-28.15h-.1c.31,4.57.31,9.84.31,16.42v11.73Z" transform="translate(-91.6 -178.86)"/><path class="cls-1" d="M323.65,237.74h-13v-7.16h35v7.16h-13v29.87h-9Z" transform="translate(-91.6 -178.86)"/><path class="cls-1" d="M370.71,256.52c1.06,3.19,3.62,5.29,9.77,5.29,5.75,0,7.42-1.75,7.42-4.14,0-2.55-1.71-4-9.51-5.32C365.54,250.15,363.2,246,363.2,241c0-7.39,7.12-11.17,15.87-11.17,12.71,0,16.16,6.53,16.58,10.84h-9c-.52-1.84-1.75-4.29-7.86-4.29-4.28,0-6.45,1.36-6.45,3.75,0,2.14,1.52,3.22,8.48,4.47,14.07,2.52,16.27,6.77,16.27,12.14,0,6.42-5,11.61-17.46,11.61-11.58,0-16.8-5.17-17.92-11.84Z" transform="translate(-91.6 -178.86)"/></svg>